G04 #@! TF.GenerationSoftware,KiCad,Pcbnew,(5.0.0)*
G04 #@! TF.CreationDate,2018-10-20T01:37:56+02:00*
G04 #@! TF.ProjectId,rubylife,727562796C6966652E6B696361645F70,rev?*
G04 #@! TF.SameCoordinates,Original*
G04 #@! TF.FileFunction,Legend,Bot*
G04 #@! TF.FilePolarity,Positive*
%FSLAX46Y46*%
G04 Gerber Fmt 4.6, Leading zero omitted, Abs format (unit mm)*
G04 Created by KiCad (PCBNEW (5.0.0)) date 10/20/18 01:37:56*
%MOMM*%
%LPD*%
G01*
G04 APERTURE LIST*
%ADD10C,0.150000*%
%ADD11C,0.300000*%
%ADD12C,0.200000*%
%ADD13C,0.120000*%
%ADD14R,2.900000X5.500000*%
%ADD15C,18.200000*%
%ADD16R,1.900000X1.000000*%
%ADD17C,1.900000*%
%ADD18C,2.900000*%
%ADD19C,0.100000*%
%ADD20R,1.900000X1.900000*%
G04 APERTURE END LIST*
D10*
X131216785Y-56107142D02*
X130702500Y-56107142D01*
X130959642Y-57007142D02*
X130959642Y-56107142D01*
X130402500Y-57007142D02*
X130402500Y-56107142D01*
X130059642Y-56107142D01*
X129973928Y-56150000D01*
X129931071Y-56192857D01*
X129888214Y-56278571D01*
X129888214Y-56407142D01*
X129931071Y-56492857D01*
X129973928Y-56535714D01*
X130059642Y-56578571D01*
X130402500Y-56578571D01*
X129502500Y-57007142D02*
X129502500Y-56107142D01*
X128559642Y-56921428D02*
X128602500Y-56964285D01*
X128731071Y-57007142D01*
X128816785Y-57007142D01*
X128945357Y-56964285D01*
X129031071Y-56878571D01*
X129073928Y-56792857D01*
X129116785Y-56621428D01*
X129116785Y-56492857D01*
X129073928Y-56321428D01*
X129031071Y-56235714D01*
X128945357Y-56150000D01*
X128816785Y-56107142D01*
X128731071Y-56107142D01*
X128602500Y-56150000D01*
X128559642Y-56192857D01*
X131216785Y-57607142D02*
X130702500Y-57607142D01*
X130959642Y-58507142D02*
X130959642Y-57607142D01*
X130402500Y-58507142D02*
X130402500Y-57607142D01*
X130059642Y-57607142D01*
X129973928Y-57650000D01*
X129931071Y-57692857D01*
X129888214Y-57778571D01*
X129888214Y-57907142D01*
X129931071Y-57992857D01*
X129973928Y-58035714D01*
X130059642Y-58078571D01*
X130402500Y-58078571D01*
X129502500Y-58507142D02*
X129502500Y-57607142D01*
X129073928Y-58507142D02*
X129073928Y-57607142D01*
X128859642Y-57607142D01*
X128731071Y-57650000D01*
X128645357Y-57735714D01*
X128602500Y-57821428D01*
X128559642Y-57992857D01*
X128559642Y-58121428D01*
X128602500Y-58292857D01*
X128645357Y-58378571D01*
X128731071Y-58464285D01*
X128859642Y-58507142D01*
X129073928Y-58507142D01*
X130573928Y-60007142D02*
X130873928Y-59578571D01*
X131088214Y-60007142D02*
X131088214Y-59107142D01*
X130745357Y-59107142D01*
X130659642Y-59150000D01*
X130616785Y-59192857D01*
X130573928Y-59278571D01*
X130573928Y-59407142D01*
X130616785Y-59492857D01*
X130659642Y-59535714D01*
X130745357Y-59578571D01*
X131088214Y-59578571D01*
X130188214Y-59535714D02*
X129888214Y-59535714D01*
X129759642Y-60007142D02*
X130188214Y-60007142D01*
X130188214Y-59107142D01*
X129759642Y-59107142D01*
X129416785Y-59964285D02*
X129288214Y-60007142D01*
X129073928Y-60007142D01*
X128988214Y-59964285D01*
X128945357Y-59921428D01*
X128902500Y-59835714D01*
X128902500Y-59750000D01*
X128945357Y-59664285D01*
X128988214Y-59621428D01*
X129073928Y-59578571D01*
X129245357Y-59535714D01*
X129331071Y-59492857D01*
X129373928Y-59450000D01*
X129416785Y-59364285D01*
X129416785Y-59278571D01*
X129373928Y-59192857D01*
X129331071Y-59150000D01*
X129245357Y-59107142D01*
X129031071Y-59107142D01*
X128902500Y-59150000D01*
X110500000Y-52707142D02*
X110200000Y-53607142D01*
X109900000Y-52707142D01*
X109085714Y-53521428D02*
X109128571Y-53564285D01*
X109257142Y-53607142D01*
X109342857Y-53607142D01*
X109471428Y-53564285D01*
X109557142Y-53478571D01*
X109600000Y-53392857D01*
X109642857Y-53221428D01*
X109642857Y-53092857D01*
X109600000Y-52921428D01*
X109557142Y-52835714D01*
X109471428Y-52750000D01*
X109342857Y-52707142D01*
X109257142Y-52707142D01*
X109128571Y-52750000D01*
X109085714Y-52792857D01*
X108185714Y-53521428D02*
X108228571Y-53564285D01*
X108357142Y-53607142D01*
X108442857Y-53607142D01*
X108571428Y-53564285D01*
X108657142Y-53478571D01*
X108700000Y-53392857D01*
X108742857Y-53221428D01*
X108742857Y-53092857D01*
X108700000Y-52921428D01*
X108657142Y-52835714D01*
X108571428Y-52750000D01*
X108442857Y-52707142D01*
X108357142Y-52707142D01*
X108228571Y-52750000D01*
X108185714Y-52792857D01*
X122485714Y-56450000D02*
X122571428Y-56407142D01*
X122700000Y-56407142D01*
X122828571Y-56450000D01*
X122914285Y-56535714D01*
X122957142Y-56621428D01*
X123000000Y-56792857D01*
X123000000Y-56921428D01*
X122957142Y-57092857D01*
X122914285Y-57178571D01*
X122828571Y-57264285D01*
X122700000Y-57307142D01*
X122614285Y-57307142D01*
X122485714Y-57264285D01*
X122442857Y-57221428D01*
X122442857Y-56921428D01*
X122614285Y-56921428D01*
X122057142Y-57307142D02*
X122057142Y-56407142D01*
X121542857Y-57307142D01*
X121542857Y-56407142D01*
X121114285Y-57307142D02*
X121114285Y-56407142D01*
X120900000Y-56407142D01*
X120771428Y-56450000D01*
X120685714Y-56535714D01*
X120642857Y-56621428D01*
X120600000Y-56792857D01*
X120600000Y-56921428D01*
X120642857Y-57092857D01*
X120685714Y-57178571D01*
X120771428Y-57264285D01*
X120900000Y-57307142D01*
X121114285Y-57307142D01*
D11*
X129311892Y-73950158D02*
X128724580Y-73474698D01*
X129363711Y-73209110D02*
X128066877Y-73118427D01*
X128032331Y-73612459D01*
X128085449Y-73740285D01*
X128142885Y-73806357D01*
X128262074Y-73876748D01*
X128447336Y-73889702D01*
X128575162Y-73836585D01*
X128641235Y-73779149D01*
X128711625Y-73659960D01*
X128746171Y-73165928D01*
X128593734Y-74458443D02*
X128563506Y-74890721D01*
X129229845Y-75123483D02*
X129273027Y-74505944D01*
X127976194Y-74415260D01*
X127933011Y-75032800D01*
X127907102Y-75403324D02*
X129173707Y-75926285D01*
X127846646Y-76267879D01*
X128677954Y-77691240D02*
X128634772Y-78308780D01*
X129057114Y-77593642D02*
X127730053Y-77935236D01*
X128996659Y-78458197D01*
D12*
X114700000Y-50700000D02*
G75*
G03X114700000Y-50700000I-2300000J0D01*
G01*
X129665419Y-63907882D02*
X129333171Y-64820726D01*
X129347779Y-64947663D01*
X129381932Y-65020904D01*
X129469782Y-65113689D01*
X129630872Y-65172321D01*
X129757809Y-65157712D01*
X129411347Y-64605939D02*
X129499196Y-64698724D01*
X129713983Y-64776900D01*
X129840920Y-64762291D01*
X129914161Y-64728138D01*
X130006946Y-64640289D01*
X130124210Y-64318109D01*
X130109601Y-64191171D01*
X130075449Y-64117930D01*
X129987599Y-64025146D01*
X129772812Y-63946970D01*
X129645875Y-63961578D01*
X128854835Y-64464196D02*
X129128452Y-63712442D01*
X129265260Y-63336565D02*
X129299412Y-63409805D01*
X129226172Y-63443958D01*
X129192019Y-63370717D01*
X129265260Y-63336565D01*
X129226172Y-63443958D01*
X128752575Y-63575634D02*
X128323001Y-63419281D01*
X128728292Y-63141124D02*
X128376500Y-64107665D01*
X128283716Y-64195515D01*
X128156778Y-64210124D01*
X128049385Y-64171036D01*
X127673508Y-64034228D02*
X128083932Y-62906596D01*
X127190237Y-63858331D02*
X127405221Y-63267668D01*
X127498006Y-63179818D01*
X127624943Y-63165209D01*
X127786034Y-63223841D01*
X127873883Y-63316626D01*
X127908036Y-63389867D01*
X126443616Y-62735241D02*
X126169999Y-63486995D01*
X126926886Y-62911137D02*
X126711902Y-63501801D01*
X126619117Y-63589651D01*
X126492180Y-63604259D01*
X126331090Y-63545627D01*
X126243240Y-63452843D01*
X126209087Y-63379602D01*
X125633032Y-63291555D02*
X126043456Y-62163924D01*
X125887104Y-62593498D02*
X125799255Y-62500713D01*
X125584468Y-62422537D01*
X125457531Y-62437146D01*
X125384290Y-62471298D01*
X125291505Y-62559148D01*
X125174241Y-62881328D01*
X125188850Y-63008266D01*
X125223002Y-63081506D01*
X125310852Y-63174291D01*
X125525639Y-63252467D01*
X125652576Y-63237859D01*
X124651883Y-62812826D02*
X124578642Y-62846978D01*
X124612795Y-62920219D01*
X124686035Y-62886066D01*
X124651883Y-62812826D01*
X124612795Y-62920219D01*
X123612101Y-62495186D02*
X123699950Y-62587971D01*
X123914737Y-62666147D01*
X124041675Y-62651538D01*
X124114915Y-62617386D01*
X124207700Y-62529536D01*
X124324964Y-62207356D01*
X124310355Y-62080418D01*
X124276203Y-62007178D01*
X124188353Y-61914393D01*
X123973566Y-61836217D01*
X123846629Y-61850826D01*
X122948196Y-62314355D02*
X123075134Y-62299746D01*
X123148374Y-62265593D01*
X123241159Y-62177744D01*
X123358423Y-61855564D01*
X123343814Y-61728626D01*
X123309662Y-61655385D01*
X123221812Y-61562601D01*
X123060722Y-61503969D01*
X122933785Y-61518577D01*
X122860544Y-61552730D01*
X122767759Y-61640580D01*
X122650495Y-61962760D01*
X122665104Y-62089697D01*
X122699257Y-62162938D01*
X122787106Y-62255723D01*
X122948196Y-62314355D01*
X122089049Y-62001651D02*
X122362665Y-61249897D01*
X122323577Y-61357290D02*
X122289424Y-61284049D01*
X122201575Y-61191265D01*
X122040484Y-61132633D01*
X121913547Y-61147241D01*
X121820762Y-61235091D01*
X121605778Y-61825755D01*
X121820762Y-61235091D02*
X121806154Y-61108153D01*
X121718304Y-61015368D01*
X121557214Y-60956736D01*
X121430276Y-60971345D01*
X121337492Y-61059195D01*
X121122508Y-61649859D01*
X120210058Y-59979930D02*
X120648911Y-61781534D01*
X119404213Y-61024450D02*
X119814637Y-59896819D01*
X119453171Y-60555788D02*
X118974639Y-60868098D01*
X119248255Y-60116344D02*
X119521477Y-60702270D01*
X118491368Y-60692202D02*
X118764984Y-59940448D01*
X118901792Y-59564571D02*
X118935945Y-59637812D01*
X118862704Y-59671964D01*
X118828552Y-59598724D01*
X118901792Y-59564571D01*
X118862704Y-59671964D01*
X117744747Y-59569112D02*
X117471131Y-60320866D01*
X118228017Y-59745008D02*
X118013033Y-60335672D01*
X117920248Y-60423521D01*
X117793311Y-60438130D01*
X117632221Y-60379498D01*
X117544371Y-60286713D01*
X117510219Y-60213473D01*
X116558681Y-58650938D02*
X116997534Y-60452542D01*
X115752836Y-59695458D02*
X116026452Y-58943704D01*
X115948276Y-59158491D02*
X115933667Y-59031553D01*
X115899514Y-58958312D01*
X115811665Y-58865528D01*
X115704271Y-58826440D01*
X114845124Y-58513735D02*
X114571508Y-59265490D01*
X115328394Y-58689632D02*
X115113410Y-59280295D01*
X115020625Y-59368145D01*
X114893688Y-59382754D01*
X114732598Y-59324122D01*
X114644748Y-59231337D01*
X114610596Y-59158096D01*
X114034540Y-59070049D02*
X114444965Y-57942418D01*
X114288613Y-58371992D02*
X114200763Y-58279207D01*
X113985976Y-58201031D01*
X113859039Y-58215640D01*
X113785798Y-58249793D01*
X113693013Y-58337642D01*
X113575749Y-58659822D01*
X113590358Y-58786760D01*
X113624511Y-58860001D01*
X113712360Y-58952785D01*
X113927147Y-59030961D01*
X114054084Y-59016353D01*
X113395312Y-57986047D02*
X112853213Y-58640081D01*
X112858345Y-57790607D02*
X112853213Y-58640081D01*
X112862886Y-58947653D01*
X112897039Y-59020894D01*
X112984888Y-59113678D01*
X111994065Y-58327377D02*
X112121002Y-58312768D01*
X112213787Y-58224919D01*
X112565579Y-57258378D01*
X111564491Y-58171025D02*
X111838107Y-57419271D01*
X111974915Y-57043394D02*
X112009068Y-57116635D01*
X111935827Y-57150787D01*
X111901675Y-57077547D01*
X111974915Y-57043394D01*
X111935827Y-57150787D01*
X111462230Y-57282463D02*
X111032657Y-57126111D01*
X111027524Y-57975585D02*
X111379316Y-57009044D01*
X111364708Y-56882107D01*
X111276858Y-56789322D01*
X111169465Y-56750234D01*
X109973134Y-57531008D02*
X110060983Y-57623793D01*
X110275770Y-57701969D01*
X110402707Y-57687360D01*
X110495492Y-57599511D01*
X110651844Y-57169937D01*
X110637236Y-57043000D01*
X110549386Y-56950215D01*
X110334599Y-56872039D01*
X110207662Y-56886647D01*
X110114877Y-56974497D01*
X110075789Y-57081890D01*
X110573668Y-57384724D01*
D10*
G04 #@! TO.C,U1*
X126675000Y-47150000D02*
X126675000Y-47175000D01*
X122525000Y-47150000D02*
X122525000Y-47265000D01*
X122525000Y-56050000D02*
X122525000Y-55935000D01*
X126675000Y-56050000D02*
X126675000Y-55935000D01*
X126675000Y-47150000D02*
X122525000Y-47150000D01*
X126675000Y-56050000D02*
X122525000Y-56050000D01*
X126675000Y-47175000D02*
X128050000Y-47175000D01*
D13*
G04 #@! TO.C,C1*
X103528835Y-64174585D02*
X108279917Y-60847842D01*
X101636033Y-61471384D02*
X106387115Y-58144640D01*
X103528835Y-64174585D02*
X101636033Y-61471384D01*
G04 #@! TO.C,R1*
X110450000Y-55850000D02*
X110450000Y-54150000D01*
X110500000Y-54150000D02*
X114550000Y-54150000D01*
X110500000Y-55850000D02*
X114550000Y-55850000D01*
G04 #@! TO.C,R2*
X101459257Y-67169141D02*
X99894399Y-67833384D01*
X99874862Y-67787358D02*
X98292401Y-64059314D01*
X101439720Y-67123115D02*
X99857259Y-63395071D01*
G04 #@! TO.C,R3*
X119622160Y-50281799D02*
X118622925Y-51657128D01*
X118582474Y-51627738D02*
X115305955Y-49247208D01*
X119581709Y-50252409D02*
X116305190Y-47871879D01*
G04 #@! TO.C,R4*
X102850000Y-79900000D02*
X101150000Y-79900000D01*
X101150000Y-79850000D02*
X101150000Y-75800000D01*
X102850000Y-79850000D02*
X102850000Y-75800000D01*
G04 #@! TO.C,R5*
X123231188Y-61036731D02*
X123171858Y-59337767D01*
X123221828Y-59336022D02*
X127269361Y-59194679D01*
X123281157Y-61034986D02*
X127328690Y-60893643D01*
G04 #@! TO.C,R6*
X104092110Y-56948085D02*
X102911191Y-55725207D01*
X102947158Y-55690474D02*
X105860484Y-52877108D01*
X104128077Y-56913352D02*
X107041403Y-54099985D01*
G04 #@! TO.C,R7*
X126850000Y-79700000D02*
X125150000Y-79700000D01*
X125150000Y-79650000D02*
X125150000Y-75600000D01*
X126850000Y-79650000D02*
X126850000Y-75600000D01*
G04 #@! TO.C,R8*
X129373538Y-72553203D02*
X127677679Y-72434617D01*
X127681167Y-72384739D02*
X127963681Y-68344605D01*
X129377026Y-72503325D02*
X129659540Y-68463191D01*
G04 #@! TD*
%LPC*%
D14*
G04 #@! TO.C,BT1*
X125500000Y-70850000D03*
X102600000Y-70900000D03*
D15*
X114050000Y-70900000D03*
G04 #@! TD*
D16*
G04 #@! TO.C,U1*
X127300000Y-47790000D03*
X127300000Y-49060000D03*
X127300000Y-50330000D03*
X127300000Y-51600000D03*
X127300000Y-52870000D03*
X127300000Y-54140000D03*
X127300000Y-55410000D03*
X121900000Y-55410000D03*
X121900000Y-54140000D03*
X121900000Y-52870000D03*
X121900000Y-51600000D03*
X121900000Y-50330000D03*
X121900000Y-49060000D03*
X121900000Y-47790000D03*
G04 #@! TD*
D17*
G04 #@! TO.C,TP1*
X130500000Y-51600000D03*
G04 #@! TD*
G04 #@! TO.C,TP2*
X129700000Y-49100000D03*
G04 #@! TD*
G04 #@! TO.C,TP3*
X130500000Y-54200000D03*
G04 #@! TD*
D18*
G04 #@! TO.C,C1*
X104138823Y-61733189D03*
D19*
G36*
X103496035Y-63953397D02*
X101832663Y-61577856D01*
X104781611Y-59512981D01*
X106444983Y-61888522D01*
X103496035Y-63953397D01*
X103496035Y-63953397D01*
G37*
D18*
X107661177Y-59266811D03*
D19*
G36*
X107018389Y-61487019D02*
X105355017Y-59111478D01*
X108303965Y-57046603D01*
X109967337Y-59422144D01*
X107018389Y-61487019D01*
X107018389Y-61487019D01*
G37*
G04 #@! TD*
D17*
G04 #@! TO.C,TP4*
X108500000Y-51200000D03*
G04 #@! TD*
G04 #@! TO.C,TP5*
X121800000Y-58400000D03*
G04 #@! TD*
D20*
G04 #@! TO.C,R1*
X114600000Y-55000000D03*
X111300000Y-55000000D03*
G04 #@! TD*
D17*
G04 #@! TO.C,R2*
X99055294Y-63681167D03*
D19*
G36*
X97809620Y-63177882D02*
X99558579Y-62435493D01*
X100300968Y-64184452D01*
X98552009Y-64926841D01*
X97809620Y-63177882D01*
X97809620Y-63177882D01*
G37*
D17*
X100344706Y-66718833D03*
D19*
G36*
X99099032Y-66215548D02*
X100847991Y-65473159D01*
X101590380Y-67222118D01*
X99841421Y-67964507D01*
X99099032Y-66215548D01*
X99099032Y-66215548D01*
G37*
G04 #@! TD*
D17*
G04 #@! TO.C,R3*
X115765122Y-48530154D03*
D19*
G36*
X114438160Y-48740324D02*
X115554952Y-47203192D01*
X117092084Y-48319984D01*
X115975292Y-49857116D01*
X114438160Y-48740324D01*
X114438160Y-48740324D01*
G37*
D17*
X118434878Y-50469846D03*
D19*
G36*
X117107916Y-50680016D02*
X118224708Y-49142884D01*
X119761840Y-50259676D01*
X118645048Y-51796808D01*
X117107916Y-50680016D01*
X117107916Y-50680016D01*
G37*
G04 #@! TD*
D20*
G04 #@! TO.C,R4*
X102000000Y-75750000D03*
X102000000Y-79050000D03*
G04 #@! TD*
D17*
G04 #@! TO.C,R5*
X127348995Y-60042416D03*
D19*
G36*
X128265262Y-59059840D02*
X128331571Y-60958683D01*
X126432728Y-61024992D01*
X126366419Y-59126149D01*
X128265262Y-59059840D01*
X128265262Y-59059840D01*
G37*
D17*
X124051005Y-60157584D03*
D19*
G36*
X124967272Y-59175008D02*
X125033581Y-61073851D01*
X123134738Y-61140160D01*
X123068429Y-59241317D01*
X124967272Y-59175008D01*
X124967272Y-59175008D01*
G37*
G04 #@! TD*
D17*
G04 #@! TO.C,R6*
X106486911Y-53453814D03*
D19*
G36*
X106510358Y-52110516D02*
X107830209Y-53477261D01*
X106463464Y-54797112D01*
X105143613Y-53430367D01*
X106510358Y-52110516D01*
X106510358Y-52110516D01*
G37*
D17*
X104113089Y-55746186D03*
D19*
G36*
X104136536Y-54402888D02*
X105456387Y-55769633D01*
X104089642Y-57089484D01*
X102769791Y-55722739D01*
X104136536Y-54402888D01*
X104136536Y-54402888D01*
G37*
G04 #@! TD*
D20*
G04 #@! TO.C,R7*
X126000000Y-75550000D03*
X126000000Y-78850000D03*
G04 #@! TD*
D17*
G04 #@! TO.C,R8*
X128815098Y-68354019D03*
D19*
G36*
X127933681Y-67340065D02*
X129829052Y-67472602D01*
X129696515Y-69367973D01*
X127801144Y-69235436D01*
X127933681Y-67340065D01*
X127933681Y-67340065D01*
G37*
D17*
X128584902Y-71645981D03*
D19*
G36*
X127703485Y-70632027D02*
X129598856Y-70764564D01*
X129466319Y-72659935D01*
X127570948Y-72527398D01*
X127703485Y-70632027D01*
X127703485Y-70632027D01*
G37*
G04 #@! TD*
M02*
