G04 #@! TF.GenerationSoftware,KiCad,Pcbnew,(5.0.0)*
G04 #@! TF.CreationDate,2018-10-20T01:37:56+02:00*
G04 #@! TF.ProjectId,rubylife,727562796C6966652E6B696361645F70,rev?*
G04 #@! TF.SameCoordinates,Original*
G04 #@! TF.FileFunction,Soldermask,Top*
G04 #@! TF.FilePolarity,Negative*
%FSLAX46Y46*%
G04 Gerber Fmt 4.6, Leading zero omitted, Abs format (unit mm)*
G04 Created by KiCad (PCBNEW (5.0.0)) date 10/20/18 01:37:56*
%MOMM*%
%LPD*%
G01*
G04 APERTURE LIST*
%ADD10C,1.900000*%
%ADD11C,0.100000*%
G04 APERTURE END LIST*
D10*
G04 #@! TO.C,D1*
X115506734Y-63374703D03*
D11*
G36*
X115553622Y-62032019D02*
X116849418Y-63421591D01*
X115459846Y-64717387D01*
X114164050Y-63327815D01*
X115553622Y-62032019D01*
X115553622Y-62032019D01*
G37*
D10*
X113093266Y-65625297D03*
D11*
G36*
X113140154Y-64282613D02*
X114435950Y-65672185D01*
X113046378Y-66967981D01*
X111750582Y-65578409D01*
X113140154Y-64282613D01*
X113140154Y-64282613D01*
G37*
G04 #@! TD*
D10*
G04 #@! TO.C,D2*
X98855294Y-64481167D03*
D11*
G36*
X97609620Y-63977882D02*
X99358579Y-63235493D01*
X100100968Y-64984452D01*
X98352009Y-65726841D01*
X97609620Y-63977882D01*
X97609620Y-63977882D01*
G37*
D10*
X100144706Y-67518833D03*
D11*
G36*
X98899032Y-67015548D02*
X100647991Y-66273159D01*
X101390380Y-68022118D01*
X99641421Y-68764507D01*
X98899032Y-67015548D01*
X98899032Y-67015548D01*
G37*
G04 #@! TD*
D10*
G04 #@! TO.C,D3*
X115265122Y-49030154D03*
D11*
G36*
X113938160Y-49240324D02*
X115054952Y-47703192D01*
X116592084Y-48819984D01*
X115475292Y-50357116D01*
X113938160Y-49240324D01*
X113938160Y-49240324D01*
G37*
D10*
X117934878Y-50969846D03*
D11*
G36*
X116607916Y-51180016D02*
X117724708Y-49642884D01*
X119261840Y-50759676D01*
X118145048Y-52296808D01*
X116607916Y-51180016D01*
X116607916Y-51180016D01*
G37*
G04 #@! TD*
D10*
G04 #@! TO.C,D4*
X107454802Y-75313918D03*
D11*
G36*
X106803459Y-74138864D02*
X108629856Y-74662575D01*
X108106145Y-76488972D01*
X106279748Y-75965261D01*
X106803459Y-74138864D01*
X106803459Y-74138864D01*
G37*
D10*
X106545198Y-78486082D03*
D11*
G36*
X105893855Y-77311028D02*
X107720252Y-77834739D01*
X107196541Y-79661136D01*
X105370144Y-79137425D01*
X105893855Y-77311028D01*
X105893855Y-77311028D01*
G37*
G04 #@! TD*
D10*
G04 #@! TO.C,D5*
X127548995Y-59942416D03*
D11*
G36*
X128465262Y-58959840D02*
X128531571Y-60858683D01*
X126632728Y-60924992D01*
X126566419Y-59026149D01*
X128465262Y-58959840D01*
X128465262Y-58959840D01*
G37*
D10*
X124251005Y-60057584D03*
D11*
G36*
X125167272Y-59075008D02*
X125233581Y-60973851D01*
X123334738Y-61040160D01*
X123268429Y-59141317D01*
X125167272Y-59075008D01*
X125167272Y-59075008D01*
G37*
G04 #@! TD*
D10*
G04 #@! TO.C,D6*
X106586911Y-53553814D03*
D11*
G36*
X106610358Y-52210516D02*
X107930209Y-53577261D01*
X106563464Y-54897112D01*
X105243613Y-53530367D01*
X106610358Y-52210516D01*
X106610358Y-52210516D01*
G37*
D10*
X104213089Y-55846186D03*
D11*
G36*
X104236536Y-54502888D02*
X105556387Y-55869633D01*
X104189642Y-57189484D01*
X102869791Y-55822739D01*
X104236536Y-54502888D01*
X104236536Y-54502888D01*
G37*
G04 #@! TD*
D10*
G04 #@! TO.C,D7*
X121647732Y-78413646D03*
D11*
G36*
X122546711Y-77415229D02*
X122646149Y-79312625D01*
X120748753Y-79412063D01*
X120649315Y-77514667D01*
X122546711Y-77415229D01*
X122546711Y-77415229D01*
G37*
D10*
X118352254Y-78586354D03*
D11*
G36*
X119251233Y-77587937D02*
X119350671Y-79485333D01*
X117453275Y-79584771D01*
X117353837Y-77687375D01*
X119251233Y-77587937D01*
X119251233Y-77587937D01*
G37*
G04 #@! TD*
D10*
G04 #@! TO.C,D8*
X128515098Y-68354019D03*
D11*
G36*
X127633681Y-67340065D02*
X129529052Y-67472602D01*
X129396515Y-69367973D01*
X127501144Y-69235436D01*
X127633681Y-67340065D01*
X127633681Y-67340065D01*
G37*
D10*
X128284902Y-71645981D03*
D11*
G36*
X127403485Y-70632027D02*
X129298856Y-70764564D01*
X129166319Y-72659935D01*
X127270948Y-72527398D01*
X127403485Y-70632027D01*
X127403485Y-70632027D01*
G37*
G04 #@! TD*
M02*
